<?xml version="1.0" encoding="UTF-8"?>
<svg id="Layer_1" data-name="Layer 1" xmlns="http://www.w3.org/2000/svg" viewBox="0 0 928.91 263.86">
  <defs>
    <style>
      .cls-1 {
        fill: #7403ff;
      }

      .cls-2 {
        fill: #d602ff;
      }
    </style>
  </defs>
  <path class="cls-2" d="m0,0h83.67c.17.01.3.14.3.31h0v23.23c0,.2-.17.37-.37.37h0l-83.6-.03V0Z"/>
  <path class="cls-1" d="m54.59,0l.05,111.19c0,.2-.13.37-.29.37h0l-25.95.1V0"/>
  <path class="cls-1" d="m117.14,66.27c0-1.34-.05-2.89,0-4.96.09-3.59.1-10.11.05-19.56-.01-1.64.06-3.45.06-5.48,21.89-8.58,46.63,2.75,52.81,25.46,1.03,3.79,1.56,10.23,1.57,19.31.01,10.1.02,20.21.03,30.33,0,.24-.2.43-.44.43h-22.76c-.31,0-.57-.26-.57-.57h0c.07-12.7.05-25.34-.06-37.91-.16-17.09-22.6-22.13-30.69-7.05Z"/>
  <path class="cls-1" d="m256.55,52.04c-5.85,2.55-11.67,4.86-17.44,6.91-.41.15-1.35.56-2.81,1.25-1.15.55-2.16.79-3.03.72-10.55-7.71-24.35-3.15-26.95,9.72l-23.59,8.93c-4.56-43.28,49.06-64.31,73.82-27.53Z"/>
  <path class="cls-1" d="m188.21,94.11c7.16-2.81,14.24-5.43,21.25-7.84.91-.31,1.81-.41,2.72-.32,8.98,6.19,21.74,3.8,25.53-7,.14-.39.57-.61.97-.48l21.31,6.74c.44.14.69.61.54,1.05,0,.01,0,.03-.01.04-11.89,31.92-53.41,36.75-72.31,7.81Z"/>
  <path class="cls-1" d="m272.7,152.82c26.5-9.99,51.43,8.74,51.66,36.5.04,4.83.03,16.57-.04,35.21,0,.37-.2.56-.57.56h-21.04c-.67,0-1.01-.34-1.01-1.01,0-11.75.03-23.42.1-35.01.06-10.21-7.33-18.01-17.49-16.26-6.77,1.16-12.2,7.12-12.23,14.25-.05,12.61-.08,25.19-.09,37.76,0,.15-.13.27-.28.27h-21.75c-.3,0-.54-.24-.54-.54h0l-.05-109.64c0-.25.13-.38.38-.38h21.97c.16,0,.29.13.29.28h0v37.54c0,.28.22.5.5.5.06,0,.13-.01.19-.03Z"/>
  <circle class="cls-1" cx="134.55" cy="129.18" r="12.59"/>
  <path class="cls-1" d="m523.51,121.21c-.12.56-.32,1.25-.61,2.06-11.69,33.11-23.54,66.81-35.57,101.11-.19.53-.56.8-1.13.8l-22.79-.03c-.7,0-1.33-.44-1.56-1.11l-36.97-105.2c-.13-.36,0-.54.38-.54h23.52c.39,0,.64.17.77.53l23.94,68.21c.77,2.18,1.53,2.18,2.3.01l24.13-68.27c.11-.33.34-.49.69-.49h23.38c.37,0,.52.19.46.55-.09.56-.29,1.07-.6,1.54-.16.25-.27.53-.34.83Z"/>
  <path class="cls-1" d="m54.22,191v33.58c0,.29-.23.52-.52.52l-23.75-.02c-.3,0-.55-.24-.55-.54h0s.01-105.73.01-105.73c0-.33.16-.49.49-.49,14.64-.05,29.25-.05,43.82-.01,2.63.01,5.55.49,8.78,1.42,25.37,7.38,34.46,38.38,17.02,58.33-.48.55-.48,1.37,0,1.91,6.45,7.32,8.69,14.8,9.1,25.1.26,6.43.26,12.9.01,19.42-.01.34-.29.61-.63.61l-21.3-.02c-.36,0-.54-.18-.54-.54-.01-5.84.01-11.66.07-17.47.06-6.58-1.8-12.35-7.98-15.23-1.82-.85-4.74-1.27-8.76-1.25-4.93.03-9.85,0-14.78-.07-.33,0-.49.15-.49.48Zm-.03-49.49l.04,25.62c0,.36.3.66.66.66l17.68-.03c7.46-.01,13.49-5.95,13.48-13.27,0,0,0,0,0,0v-.44c-.02-7.31-6.07-13.23-13.52-13.22l-17.68.03c-.36,0-.66.3-.66.66h0Z"/>
  <path class="cls-1" d="m360.17,171.05c-.11,8.49-.13,16.99-.04,25.5.05,4.68,1.29,8.15,6.62,7.59.33-.04.64-.16.91-.37l.49-.38c.34-.26.63-.21.88.14l12.43,17.8c.19.26.15.48-.12.65-15.78,10.45-36.85,3.12-42.51-15.06-.9-2.89-1.35-7.01-1.36-12.36-.02-22.67-.02-45.33-.01-67.99,0-.34.17-.51.52-.51h21.69c.3,0,.45.15.45.45v25.24c0,.37.17.55.54.55h16.06c.33,0,.5.17.5.51v17.25c.01.33-.16.5-.5.5h-16.05c-.33,0-.49.16-.5.49Z"/>
  <path class="cls-1" d="m231.93,172.56c-.65,0-.85.29-.61.89,10.03,24.95-6.89,51.98-33.96,53.25-9.17.43-17.48-2.35-24.93-8.33-10.79-8.67-15.58-20.21-14.36-34.6.19-2.32.85-5.53,1.71-7.78,5.09-13.32,14.55-21.69,28.39-25.1,1-.25,2.04-.4,3.13-.46,14.81-.81,29.81-.39,44.65-.42.35,0,.52.18.52.53v21.52c0,.34-.17.51-.51.51h-4.03Zm-20.16,15.72c0-8.65-7.01-15.66-15.66-15.66h0c-8.65,0-15.66,7.01-15.66,15.66h0c0,8.65,7.01,15.66,15.66,15.66h0c8.65,0,15.66-7.01,15.66-15.66h0Z"/>
  <path class="cls-1" d="m596.18,188.35c0,21.11-17.12,38.23-38.23,38.23h0c-21.11,0-38.23-17.12-38.23-38.23s17.12-38.23,38.23-38.23c21.11,0,38.23,17.12,38.23,38.23h0Zm-22.52-.07c0-8.65-7.02-15.67-15.67-15.67-8.65,0-15.67,7.02-15.67,15.67h0c0,8.65,7.02,15.67,15.67,15.67h0c8.65,0,15.67-7.02,15.67-15.67Z"/>
  <path class="cls-1" d="m731.29,224.23c-3.56.59-7,1.97-10.29,2.27-22.05,1.97-41.06-13.19-42.89-35.56-1.53-18.65,11.32-35.33,28.97-39.79,19.93-5.03,40.34,7.18,45.86,26.89,1.01,3.62,1.52,9.51,1.53,17.68.01,9.62.01,19.24,0,28.87,0,.31-.17.47-.48.48l-21.53.13c-.29,0-.45-.14-.48-.42-.01-.12-.05-.23-.12-.32-.15-.19-.34-.26-.57-.23Zm.61-35.95c0-8.65-7.01-15.66-15.66-15.66-8.65,0-15.66,7.01-15.66,15.66h0c0,8.65,7.01,15.66,15.66,15.66h0c8.65,0,15.66-7.01,15.66-15.66Z"/>
  <path class="cls-1" d="m838.26,172.45c-.06,0-.1.05-.09.11,0,0,0,.02,0,.02.82,2.21,1.48,4.19,1.99,5.94,6.29,21.48-9.14,44.29-30.71,47.68-27.26,4.29-49.53-20.66-43.48-46.9,3-13.01,13.82-23.96,26.65-27.67,3.62-1.05,10.24-1.57,19.85-1.58,10.26,0,20.52,0,30.78,0,.34,0,.51.17.51.51v21.5c0,.37-.18.55-.55.54l-4.95-.16Zm-19.32,15.83c0-8.64-7.01-15.65-15.65-15.65s-15.65,7.01-15.65,15.65h0c0,8.64,7.01,15.65,15.65,15.65h0c8.64,0,15.65-7.01,15.65-15.65Z"/>
  <path class="cls-1" d="m881.15,199.67c-.14.43-.03.78.33,1.05,8.61,6.61,20.24,3,24.59-6.69.17-.37.45-.5.84-.38l20.31,6.41c.33.1.44.32.33.65-9.42,27.08-44.19,34.88-64.05,13.77-18.04-19.17-11.8-50.15,11.99-60.89,23.02-10.39,48.87,3.68,53.41,28.26.06.33-.07.55-.38.66-15.63,5.57-31.23,11.14-46.81,16.69-.31.11-.49.27-.56.47Zm-3.34-19.51c-1.07,1.67-1.66,3.25-1.77,4.73-.07.95.34,1.27,1.25.95l23.47-8.47c.41-.15.62-.6.48-1.01-.05-.14-.14-.27-.27-.37-7.54-5.75-17.96-3.97-23.16,4.17Z"/>
  <rect class="cls-1" x="123.22" y="151.53" width="22.72" height="73.56" rx=".39" ry=".39"/>
  <path class="cls-1" d="m637.48,189.7l12.88-37.96c.04-.12.16-.21.29-.21h23c.17,0,.31.14.31.31,0,.03,0,.07-.02.1l-35.14,103.07c-.04.12-.16.21-.29.21l-22.75-.1c-.17,0-.31-.14-.31-.31,0-.03,0-.07.02-.1l9.93-29.32c.02-.06.02-.14,0-.2l-24.87-73.24c-.06-.16.03-.34.19-.39.03-.01.06-.02.1-.02h22.86c.13,0,.25.08.29.2l12.93,37.96c.06.16.24.24.4.18.08-.03.15-.1.18-.18Z"/>
  <path class="cls-1" d="m169.2,258.48l7.77-20.17c.13-.33.36-.44.7-.31,12.32,4.66,24.63,4.66,36.93,0,.35-.13.59-.02.72.32l7.82,20.05c.13.35.02.58-.33.71-2.71.99-4.6,1.62-5.67,1.89-16.91,4.22-31.25,3.94-47.7-1.97-.26-.09-.34-.27-.24-.52Z"/>
  <path class="cls-1" d="m822.48,238.33l7.82,20.06c.13.33.03.55-.3.66-18.17,6.39-35.16,6.44-53.32.02-.31-.11-.41-.33-.29-.64l7.73-20.12c.11-.28.43-.42.72-.32,12.29,4.67,24.58,4.68,36.89.01.36-.14.61-.03.75.33Z"/>
  <path class="cls-2" d="m182.56,77.55c.44,6.33,2.51,12.6,6.17,17.19l73.49-27.37c-1.43-5.89-3.59-12.21-6.39-16.37l-73.27,26.55Z"/>
  <rect class="cls-2" x="94.51" width="22.61" height="111.8"/>
</svg>